<?xml version="1.0" standalone="no"?>
<!DOCTYPE svg PUBLIC "-//W3C//DTD SVG 20010904//EN"
 "http://www.w3.org/TR/2001/REC-SVG-20010904/DTD/svg10.dtd">
<svg version="1.0" xmlns="http://www.w3.org/2000/svg"
 width="500.000000pt" height="500.000000pt" viewBox="0 0 500.000000 500.000000"
 preserveAspectRatio="xMidYMid meet">
<metadata>
Created by potrace 1.14, written by Peter Selinger 2001-2017
</metadata>
<g transform="translate(0.000000,500.000000) scale(0.100000,-0.100000)"
fill="#000000" stroke="none">
<path d="M2502 4325 c0 -99 -1 -187 -1 -195 -1 -13 -88 -15 -717 -16 -692 -1
-717 -2 -742 -21 -24 -18 -242 -354 -242 -373 0 -5 -4 -10 -8 -12 -5 -1 -23
-28 -41 -58 -18 -30 -59 -98 -91 -150 -33 -52 -70 -113 -83 -135 -13 -22 -47
-78 -76 -124 -76 -125 -72 -156 35 -274 21 -23 58 -65 83 -92 25 -28 84 -93
131 -145 47 -52 99 -108 115 -126 17 -17 49 -53 72 -80 23 -27 70 -78 103
-114 34 -36 65 -72 70 -81 11 -20 -16 -63 -36 -55 -7 3 -16 -4 -19 -15 -4 -10
-11 -19 -16 -19 -6 0 -17 -7 -26 -15 -8 -9 -28 -19 -44 -22 -20 -4 -29 -12
-29 -25 0 -11 -5 -16 -11 -13 -5 4 -19 -1 -29 -10 -13 -12 -16 -23 -10 -43 4
-15 13 -26 19 -24 7 1 10 -2 7 -7 -7 -11 32 -51 48 -51 6 0 17 -9 23 -19 8
-13 20 -18 34 -16 15 3 23 -2 26 -16 3 -11 13 -19 22 -18 31 3 41 -1 41 -16 0
-8 9 -15 20 -15 11 0 23 -6 26 -14 3 -8 12 -12 20 -9 8 3 14 1 14 -5 0 -5 11
-13 25 -16 14 -4 25 -11 25 -17 0 -6 5 -7 10 -4 5 3 10 1 10 -4 0 -6 6 -11 13
-11 7 0 24 -10 37 -22 14 -13 27 -23 30 -24 22 -4 70 -28 70 -34 0 -9 97 -60
115 -60 5 0 16 -9 23 -20 7 -11 19 -20 27 -20 8 0 15 -4 15 -9 0 -5 11 -12 25
-15 13 -3 37 -17 52 -31 46 -41 48 -42 89 -55 21 -7 43 -19 47 -26 4 -8 15
-14 23 -14 8 0 36 -23 62 -52 26 -28 58 -63 72 -78 14 -14 47 -50 74 -80 155
-172 228 -252 288 -314 l67 -69 51 5 c57 6 60 8 250 218 47 51 92 100 100 109
9 9 56 61 105 116 50 55 101 112 115 126 14 14 59 64 100 110 41 46 89 98 106
116 17 18 60 65 95 105 35 39 71 78 80 87 8 9 58 63 110 121 52 58 108 119
123 135 16 17 54 59 85 95 31 35 70 78 86 95 17 16 66 70 110 119 44 49 91
101 105 115 14 14 63 68 110 120 47 51 96 105 110 120 104 111 178 197 193
224 20 37 16 80 -12 130 -32 56 -103 171 -131 212 -15 22 -29 45 -31 50 -4 10
-124 206 -174 285 -36 56 -149 238 -160 258 -37 65 -59 91 -87 103 -23 9 -110
13 -336 14 l-304 1 -22 27 c-12 15 -29 27 -39 27 -9 0 -17 5 -17 11 0 6 -9 9
-20 6 -14 -4 -25 2 -36 19 -9 13 -20 22 -24 19 -17 -10 -40 8 -40 31 0 21 -4
24 -40 24 -22 0 -40 5 -40 10 0 6 -7 10 -16 10 -9 0 -14 6 -11 13 2 7 -10 17
-27 23 -21 8 -30 17 -29 30 1 10 0 13 -3 7 -8 -18 -33 -16 -40 2 -4 8 -10 13
-14 10 -5 -3 -26 6 -47 21 -21 14 -50 28 -65 31 -17 3 -32 16 -41 36 -14 27
-20 30 -65 31 l-51 2 1 -181z"/>
</g>
</svg>
